<?xml version="1.0" standalone="no"?>
<!DOCTYPE svg PUBLIC "-//W3C//DTD SVG 20010904//EN"
 "http://www.w3.org/TR/2001/REC-SVG-20010904/DTD/svg10.dtd">
<svg version="1.0" xmlns="http://www.w3.org/2000/svg"
 width="700.000000pt" height="700.000000pt" viewBox="0 0 700.000000 700.000000"
 preserveAspectRatio="xMidYMid meet">
<metadata>
Created by potrace 1.11, written by Peter Selinger 2001-2013
</metadata>
<g transform="translate(0.000000,700.000000) scale(0.100000,-0.100000)"
fill="#000000" stroke="none">
<path d="M4344 6899 c-134 -112 -339 -296 -478 -428 -197 -189 -522 -523 -667
-686 -24 -27 -53 -59 -64 -71 -11 -12 -27 -30 -36 -40 -8 -11 -60 -71 -115
-134 -54 -64 -126 -149 -159 -190 -33 -41 -63 -77 -66 -80 -3 -3 -47 -59 -98
-125 -51 -66 -99 -128 -107 -138 -8 -10 -32 -42 -52 -70 -20 -29 -39 -54 -42
-57 -4 -3 -39 -51 -79 -107 -40 -57 -74 -103 -75 -103 -2 0 -3 6 -3 13 -1 15
-9 108 -20 212 -16 161 -8 816 12 945 2 14 7 59 10 100 4 41 9 78 11 82 3 4 3
8 0 8 -7 0 -85 -102 -213 -280 -62 -85 -116 -159 -120 -165 -22 -27 -269 -403
-328 -500 -138 -224 -266 -441 -338 -575 -22 -41 -60 -110 -83 -153 -69 -124
-244 -479 -319 -644 -38 -84 -72 -149 -76 -145 -15 17 -126 310 -185 489 -62
186 -158 528 -170 606 -8 47 -19 47 -32 0 -5 -21 -28 -107 -51 -190 -22 -84
-43 -163 -45 -175 -3 -13 -10 -41 -16 -63 -6 -22 -14 -58 -19 -80 -5 -22 -21
-94 -36 -160 -33 -150 -28 -122 -64 -310 -34 -179 -86 -481 -96 -565 -4 -30
-8 -57 -10 -60 -2 -3 -6 -39 -10 -80 -4 -41 -8 -77 -10 -80 -2 -3 -6 -39 -10
-80 -4 -41 -8 -82 -10 -90 -2 -8 -6 -44 -9 -80 -4 -36 -9 -85 -11 -110 -10
-98 -22 -243 -31 -375 -3 -55 -8 -120 -9 -145 -2 -25 -6 -162 -10 -306 l-6
-261 65 -79 c133 -160 382 -389 601 -553 292 -218 661 -423 975 -541 47 -17
94 -35 105 -40 98 -42 463 -141 605 -165 19 -3 58 -10 85 -15 64 -12 107 -18
170 -25 28 -4 64 -8 80 -11 182 -26 676 -26 930 1 38 4 55 6 165 20 708 93
1529 391 2310 838 276 158 431 256 808 514 35 24 69 40 74 37 7 -4 8 -2 4 4
-4 7 -17 12 -29 12 -29 0 -252 58 -402 105 -391 120 -841 320 -1170 520 -71
44 -134 83 -140 87 -5 5 -28 20 -50 35 -312 207 -623 495 -824 763 -39 52 -74
100 -79 105 -37 48 -222 365 -222 381 0 1 -14 33 -31 70 -95 205 -170 478
-214 777 -24 172 -25 600 0 759 3 21 9 65 21 158 3 19 7 46 10 60 3 13 7 40
10 59 2 20 9 51 14 71 5 19 12 51 15 70 13 74 86 341 130 475 95 287 201 545
350 850 51 104 92 191 91 193 -2 1 -52 -39 -112 -89z m2023 -5625 c-3 -3 -12
-4 -19 -1 -8 3 -5 6 6 6 11 1 17 -2 13 -5z"/>
</g>
</svg>
