<svg width="60" height="61" viewBox="0 0 60 61" fill="none" xmlns="http://www.w3.org/2000/svg">
<circle cx="29.9687" cy="30.2376" r="11.9875" stroke="#36BC6B" stroke-width="4"/>
<path d="M56.8516 23.5787H51.2442C50.3429 23.5787 49.6003 23.0826 49.2551 22.2501C48.9099 21.4176 49.0853 20.5408 49.7213 19.9037L53.686 15.94C54.2688 15.3573 54.5895 14.5815 54.5895 13.7579C54.5895 12.9332 54.2688 12.1584 53.686 11.5746L48.6324 6.52101C47.467 5.35556 45.4347 5.35334 44.267 6.52101L40.3034 10.4846C39.6663 11.1206 38.7872 11.2982 37.9569 10.9519C37.1245 10.6067 36.6283 9.86418 36.6283 8.9629V3.35544C36.6283 1.65388 35.2442 0.269775 33.5427 0.269775H26.3946C24.6931 0.269775 23.3089 1.65388 23.3089 3.35544V8.9629C23.3089 9.86418 22.8128 10.6067 21.9803 10.9519C21.1501 11.2993 20.271 11.1206 19.6339 10.4846L15.6703 6.52101C14.5026 5.35334 12.4703 5.35556 11.3048 6.52101L6.25124 11.5746C5.66851 12.1573 5.34774 12.9332 5.34774 13.7579C5.34774 14.5815 5.66851 15.3562 6.25124 15.94L10.216 19.9037C10.852 20.5408 11.0262 21.4176 10.6822 22.2501C10.3381 23.0826 9.59441 23.5787 8.69313 23.5787H3.08566C1.38411 23.5787 0 24.9628 0 26.6644V33.8113C0 35.514 1.38411 36.8981 3.08566 36.8981H8.69313C9.59441 36.8981 10.337 37.3943 10.6822 38.2267C11.0273 39.0592 10.852 39.936 10.216 40.5732L6.25124 44.5368C5.66851 45.1195 5.34774 45.8954 5.34774 46.719C5.34774 47.5436 5.66851 48.3184 6.25124 48.9022L11.3048 53.9558C12.4714 55.1224 14.5026 55.1246 15.6703 53.9558L19.6339 49.9911C20.271 49.3551 21.1468 49.1797 21.9803 49.5249C22.8128 49.8701 23.3089 50.6127 23.3089 51.5139V57.1214C23.3089 58.823 24.6931 60.2071 26.3946 60.2071H33.5416C35.2431 60.2071 36.6272 58.823 36.6272 57.1214V51.5139C36.6272 50.6127 37.1234 49.8701 37.9558 49.5249C38.7894 49.1786 39.6652 49.3551 40.3023 49.9911L44.2659 53.9558C45.4336 55.1235 47.4659 55.1213 48.6313 53.9558L53.6849 48.9022C54.2677 48.3195 54.5884 47.5436 54.5884 46.719C54.5884 45.8954 54.2677 45.1206 53.6849 44.5368L49.7202 40.5732C49.0842 39.936 48.9099 39.0592 49.254 38.2267C49.5981 37.3943 50.3429 36.8981 51.2442 36.8981H56.8516C58.5532 36.8981 59.9373 35.514 59.9373 33.8125V26.6644C59.9373 24.9628 58.5532 23.5787 56.8516 23.5787ZM57.7174 33.8125C57.7174 34.2897 57.3289 34.6782 56.8516 34.6782H51.2442C49.4416 34.6782 47.8932 35.7127 47.2039 37.3776C46.5136 39.0425 46.8765 40.8695 48.1518 42.1437L52.1166 46.1074C52.4551 46.4459 52.4551 46.9953 52.1166 47.3328L47.063 52.3864C46.7256 52.7238 46.1761 52.726 45.8376 52.3864L41.874 48.4216C40.5986 47.1463 38.7728 46.7855 37.1078 47.4737C35.4429 48.163 34.4084 49.7114 34.4084 51.5139V57.1214C34.4084 57.5987 34.02 57.9872 33.5427 57.9872H26.3946C25.9173 57.9872 25.5288 57.5987 25.5288 57.1214V51.5139C25.5288 49.7114 24.4944 48.163 22.8294 47.4737C22.2711 47.2417 21.6962 47.1285 21.1279 47.1285C20.0024 47.1285 18.9113 47.5725 18.0633 48.4205L14.0997 52.3852C13.76 52.7249 13.2106 52.7227 12.8743 52.3852L7.82071 47.3316C7.48217 46.9931 7.48217 46.4437 7.82071 46.1063L11.7854 42.1426C13.0597 40.8684 13.4237 39.0414 12.7333 37.3765C12.0441 35.7127 10.4957 34.6782 8.69313 34.6782H3.08566C2.60838 34.6782 2.2199 34.2897 2.2199 33.8125V26.6644C2.2199 26.1871 2.60838 25.7986 3.08566 25.7986H8.69313C10.4957 25.7986 12.0441 24.7641 12.7333 23.0992C13.4237 21.4343 13.0608 19.6073 11.7854 18.3331L7.82071 14.3695C7.48217 14.0309 7.48217 13.4815 7.82071 13.1441L12.8743 8.09048C13.2117 7.75195 13.7612 7.75195 14.0997 8.09048L18.0633 12.0541C19.3364 13.3272 21.1623 13.6924 22.8294 13.002C24.4944 12.3138 25.5288 10.7655 25.5288 8.9629V3.35544C25.5288 2.87816 25.9173 2.48967 26.3946 2.48967H33.5416C34.02 2.48967 34.4084 2.87816 34.4084 3.35544V8.9629C34.4084 10.7655 35.4429 12.3138 37.1078 13.0031C38.775 13.6935 40.5997 13.3294 41.874 12.0552L45.8376 8.09159C46.1772 7.75306 46.7267 7.75306 47.063 8.09159L52.1166 13.1452C52.4551 13.4837 52.4551 14.0332 52.1166 14.3706L48.1518 18.3342C46.8776 19.6084 46.5136 21.4354 47.2039 23.1003C47.8932 24.7653 49.4416 25.7997 51.2442 25.7997H56.8516C57.3289 25.7986 57.7174 26.1871 57.7174 26.6644V33.8125Z" fill="black"/>
<path d="M29.9668 20.2489C24.4582 20.2489 19.9773 24.7298 19.9773 30.2384C19.9773 35.7471 24.4582 40.228 29.9668 40.228C35.4755 40.228 39.9564 35.7471 39.9564 30.2384C39.9564 24.7298 35.4755 20.2489 29.9668 20.2489ZM29.9668 38.0081C25.6835 38.0081 22.1972 34.5217 22.1972 30.2384C22.1972 25.9552 25.6835 22.4688 29.9668 22.4688C34.2501 22.4688 37.7365 25.9552 37.7365 30.2384C37.7365 34.5217 34.2501 38.0081 29.9668 38.0081Z" fill="black"/>
</svg>
