<svg width="72" height="73" viewBox="0 0 72 73" fill="none" xmlns="http://www.w3.org/2000/svg">
<g clip-path="url(#clip0)">
<path fill-rule="evenodd" clip-rule="evenodd" d="M72 61.6175C72 67.6285 67.1272 72.5013 61.1163 72.5013C55.1054 72.5013 50.2325 67.6285 50.2325 61.6175C50.2325 55.6066 55.1054 50.7338 61.1163 50.7338C67.1272 50.7338 72 55.6066 72 61.6175Z" fill="#FF9D47"/>
<path fill-rule="evenodd" clip-rule="evenodd" d="M56.9303 72.5013C61.5541 72.5013 65.3024 68.753 65.3024 64.1292C65.3024 59.5054 61.5541 55.7571 56.9303 55.7571C52.3065 55.7571 48.5582 59.5054 48.5582 64.1292C48.5582 68.753 52.3065 72.5013 56.9303 72.5013Z" fill="#FF9D47"/>
<path fill-rule="evenodd" clip-rule="evenodd" d="M23.4419 61.6175C23.4419 67.6285 18.5691 72.5013 12.5582 72.5013C6.54725 72.5013 1.67444 67.6285 1.67444 61.6175C1.67444 55.6066 6.54725 50.7338 12.5582 50.7338C18.5691 50.7338 23.4419 55.6066 23.4419 61.6175Z" fill="#FF9D47"/>
<path d="M59.8385 49.9539C59.3123 49.9539 58.7871 49.9913 58.2669 50.0583V45.4825C58.2669 44.9002 57.7951 44.4278 57.2122 44.4278C56.63 44.4278 56.1575 44.9002 56.1575 45.4825V55.2938C56.0845 55.2916 56.012 55.2883 55.9384 55.2883C55.1386 55.2883 54.3651 55.4048 53.6329 55.6179V45.5896C53.6329 44.2114 52.5117 43.0902 51.1335 43.0902H48.5336C47.1554 43.0902 46.0342 44.2114 46.0342 45.5896V56.8171H42.801V45.5896C42.801 44.2114 41.6798 43.0902 40.3021 43.0902H29.0719C27.6937 43.0902 26.5726 44.2114 26.5726 45.5896V56.8171H23.3398V45.5896C23.3398 44.2114 22.2181 43.0902 20.8405 43.0902H18.2405C16.8623 43.0902 15.7412 44.2114 15.7412 45.5896V56.8171H13.216V35.2153L34.6865 15.9381L56.1575 35.2153V40.8897C56.1575 41.472 56.63 41.9444 57.2122 41.9444C57.7951 41.9444 58.2669 41.472 58.2669 40.8897V37.1093L58.6553 37.4576C59.6809 38.3782 61.264 38.2931 62.1846 37.2675L64.5972 34.5803C65.5179 33.5547 65.4327 31.9716 64.4072 31.0509L52.8781 20.7002C52.4447 20.3107 51.7779 20.347 51.3884 20.7798C50.9995 21.2138 51.0352 21.8801 51.4686 22.2696L62.9982 32.6209C63.158 32.7642 63.1712 33.0114 63.0278 33.1713L60.6147 35.8585C60.4713 36.0184 60.2241 36.0315 60.0643 35.8882L35.3913 13.7359C34.9903 13.3761 34.3833 13.3761 33.9823 13.7359L9.30924 35.8876C9.20432 35.9816 9.08731 35.9904 9.02744 35.9871C8.96756 35.9838 8.85221 35.9629 8.75828 35.858L6.34568 33.1713C6.20231 33.0109 6.2155 32.7642 6.37535 32.6203L33.2198 8.51855C34.0559 7.76818 35.3176 7.76818 36.1537 8.51855L48.0497 19.1989C48.4831 19.5883 49.1499 19.5521 49.5389 19.1192C49.9283 18.6853 49.8921 18.019 49.4592 17.6295L37.5627 6.94916C35.923 5.47699 33.4505 5.47699 31.8108 6.94916L4.96635 31.0509C3.94078 31.9716 3.85564 33.5547 4.77629 34.5803L7.18888 37.2675C7.63493 37.7641 8.24741 38.0574 8.91428 38.0931C8.96042 38.0959 9.00602 38.097 9.05161 38.097C9.66849 38.097 10.2557 37.8723 10.7182 37.4576L11.1066 37.1088V49.9995C8.82914 50.1934 6.68022 51.0147 4.83782 52.4066C4.3731 52.7576 4.28081 53.419 4.63237 53.8837C4.83946 54.1584 5.15532 54.3029 5.47447 54.3029C5.69584 54.3029 5.91942 54.2331 6.10948 54.0897C7.58164 52.9774 9.29221 52.3067 11.1066 52.1193V65.1447H2.57409C2.26537 64.1691 2.10937 63.1529 2.10937 62.1147C2.10937 60.4036 2.54882 58.7122 3.37993 57.2236C3.66393 56.7149 3.48211 56.0728 2.97344 55.7882C2.46478 55.5048 1.82208 55.6866 1.53863 56.1953C0.531737 57.9976 0 60.0443 0 62.1147C0 63.6588 0.285644 65.1639 0.849241 66.5878C1.00854 66.9904 1.39746 67.2546 1.83032 67.2546H70.1695C70.6023 67.2546 70.9912 66.9904 71.1505 66.5878C71.7141 65.1639 71.9998 63.6588 71.9998 62.1147C71.9998 55.4092 66.544 49.9539 59.8385 49.9539ZM48.1436 45.5896C48.1436 45.3749 48.3183 45.2002 48.5336 45.2002H51.1335C51.3483 45.2002 51.5235 45.3749 51.5235 45.5896V56.5721C51.3999 56.6506 51.2785 56.7325 51.1599 56.8171H48.1436V45.5896ZM49.0956 58.9265C48.2007 60.2465 47.6772 61.8378 47.6772 63.5495C47.6772 64.0895 47.73 64.6229 47.8327 65.1453H42.801V58.9265H49.0956ZM29.0714 45.2002H40.3016C40.5164 45.2002 40.6916 45.3749 40.6916 45.5896V65.1453H28.6819V45.5896C28.6819 45.3749 28.8566 45.2002 29.0714 45.2002ZM17.85 45.5896C17.85 45.3749 18.0252 45.2002 18.24 45.2002H20.8399C21.0547 45.2002 21.2299 45.3749 21.2299 45.5896V56.8171H17.85V45.5896ZM13.216 65.1453V58.9265H26.5726V65.1453H13.216ZM57.2122 65.1453H49.9953C49.8569 64.6278 49.7871 64.0933 49.7871 63.5495C49.7871 60.1575 52.5464 57.3977 55.9384 57.3977C59.3304 57.3977 62.0901 60.1575 62.0901 63.5495C62.0901 64.0939 62.0204 64.6278 61.882 65.1453H57.2122ZM69.4257 65.1453H64.0446C64.1468 64.6229 64.1995 64.0895 64.1995 63.5495C64.1995 59.8026 61.6913 56.6325 58.2669 55.6245V52.1864C58.7844 52.1051 59.3112 52.0633 59.8385 52.0633C65.3811 52.0633 69.8904 56.5721 69.8904 62.1147C69.8904 63.1529 69.7344 64.1691 69.4257 65.1453Z" fill="black"/>
<path d="M38.2982 57.4236C38.881 57.4236 39.3529 56.9512 39.3529 56.3689V55.1725C39.3529 54.5902 38.881 54.1178 38.2982 54.1178C37.7154 54.1178 37.2435 54.5902 37.2435 55.1725V56.3689C37.2435 56.9512 37.7154 57.4236 38.2982 57.4236Z" fill="black"/>
<path d="M27.8602 32.683C27.8602 36.4474 30.9227 39.5099 34.6866 39.5099C38.451 39.5099 41.5135 36.4474 41.5135 32.683C41.5135 28.9191 38.451 25.8566 34.6866 25.8566C30.9227 25.8566 27.8602 28.9191 27.8602 32.683ZM39.4041 32.683C39.4041 35.2845 37.2881 37.4005 34.6866 37.4005C32.0856 37.4005 29.9696 35.2845 29.9696 32.683C29.9696 30.082 32.0856 27.966 34.6866 27.966C37.2881 27.966 39.4041 30.082 39.4041 32.683Z" fill="black"/>
</g>
<defs>
<clipPath id="clip0">
<rect width="72" height="72" fill="white" transform="translate(0 0.501221)"/>
</clipPath>
</defs>
</svg>
