<svg width="82" height="33" viewBox="0 0 82 33" fill="none" xmlns="http://www.w3.org/2000/svg">
<path d="M50.4484 4.24731C41.4578 4.24731 31.718 8.82586 27.9719 11.1151L65.4327 11.7395L70.6772 7.36905C67.6804 6.32847 59.439 4.24731 50.4484 4.24731Z" fill="#FF9D47"/>
<line x1="45.205" y1="1.24915" x2="45.205" y2="26.7225" stroke="black" stroke-width="1.5"/>
<line x1="33.9659" y1="13.9857" x2="39.9597" y2="13.9857" stroke="black" stroke-width="1.5"/>
<line x1="74.4233" y1="13.9857" x2="80.4171" y2="13.9857" stroke="black" stroke-width="1.5"/>
<path d="M1 26.7995H6.99373C26.7231 27.299 67.5304 27.9982 72.9248 26.7995C78.3191 25.6007 80.1672 23.8026 80.4169 23.0534V10.3167L71.4263 8.81831C68.4295 6.32092 58.9655 0.516632 45.2038 1.32615C32.4671 2.07536 24.9749 7.31988 18.9812 10.3167C9.24138 10.3167 3.24765 14.5623 1 17.0597V26.7995Z" stroke="black" stroke-width="1.5"/>
<path d="M18.9816 10.2415H60.1884L65.4329 5.74622" stroke="black" stroke-width="1.5"/>
<circle cx="12.9876" cy="25.2245" r="6.74216" fill="white" stroke="black" stroke-width="1.5"/>
<circle cx="65.4327" cy="25.2245" r="6.74216" fill="white" stroke="black" stroke-width="1.5"/>
</svg>
