<svg width="93" height="50" viewBox="0 0 93 50" fill="none" xmlns="http://www.w3.org/2000/svg">
<rect x="0.7" y="8.59984" width="84.215" height="40.2506" rx="1.3" stroke="black" stroke-width="1.4"/>
<circle cx="42.809" cy="28.7262" r="12.0266" stroke="black" stroke-width="1.4"/>
<circle cx="42.809" cy="28.7262" r="12.0266" fill="#FF9D47" stroke="black" stroke-width="1.4"/>
<circle cx="24.2957" cy="28.7253" r="2.77089" stroke="black" stroke-width="1.4"/>
<circle cx="61.3217" cy="28.7253" r="2.77089" stroke="black" stroke-width="1.4"/>
<path d="M6.48943 17.997L10.6637 13.2276H74.9607L79.135 17.997V40.5588L75.0122 44.2225H10.6122L6.48943 40.5588V17.997Z" stroke="black" stroke-width="1.4"/>
<path d="M5.78931 9.05693H5.08931V9.75693H5.78931V9.05693ZM84.4613 42.6102H83.7613V43.3102H84.4613V42.6102ZM6.48931 2.95953C6.48931 2.24156 7.07134 1.65953 7.78931 1.65953V0.259534C6.29814 0.259534 5.08931 1.46836 5.08931 2.95953H6.48931ZM6.48931 9.05693V2.95953H5.08931V9.05693H6.48931ZM5.78931 9.75693H82.4613V8.35693H5.78931V9.75693ZM82.4613 9.75693C83.1793 9.75693 83.7613 10.339 83.7613 11.0569H85.1613C85.1613 9.56576 83.9525 8.35693 82.4613 8.35693V9.75693ZM83.7613 11.0569V42.6102H85.1613V11.0569H83.7613ZM89.4043 41.9102H84.4613V43.3102H89.4043V41.9102ZM90.7043 40.6102C90.7043 41.3281 90.1223 41.9102 89.4043 41.9102V43.3102C90.8955 43.3102 92.1043 42.1013 92.1043 40.6102H90.7043ZM90.7043 2.95953V40.6102H92.1043V2.95953H90.7043ZM89.4043 1.65953C90.1223 1.65953 90.7043 2.24156 90.7043 2.95953H92.1043C92.1043 1.46836 90.8955 0.259534 89.4043 0.259534V1.65953ZM7.78931 1.65953H89.4043V0.259534H7.78931V1.65953Z" fill="black"/>
</svg>
