<svg width="94" height="51" viewBox="0 0 94 51" fill="none" xmlns="http://www.w3.org/2000/svg">
<rect x="0.7" y="9.59984" width="84.215" height="40.2506" rx="1.3" stroke="black" stroke-width="1.4"/>
<circle cx="42.8091" cy="29.7262" r="12.0266" fill="#36BC6B" stroke="black" stroke-width="1.4"/>
<circle cx="24.2956" cy="29.7253" r="2.77089" stroke="black" stroke-width="1.4"/>
<circle cx="61.3217" cy="29.7253" r="2.77089" stroke="black" stroke-width="1.4"/>
<path d="M6.48955 18.997L10.6638 14.2276H74.9609L79.1351 18.997V41.5588L75.0124 45.2225H10.6123L6.48955 41.5588V18.997Z" stroke="black" stroke-width="1.4"/>
<path d="M6.78931 9.05693H6.08931V9.75693H6.78931V9.05693ZM85.4613 42.6102H84.7613V43.3102H85.4613V42.6102ZM7.48931 2.95953C7.48931 2.24156 8.07134 1.65953 8.78931 1.65953V0.259534C7.29814 0.259534 6.08931 1.46836 6.08931 2.95953H7.48931ZM7.48931 9.05693V2.95953H6.08931V9.05693H7.48931ZM6.78931 9.75693H83.4613V8.35693H6.78931V9.75693ZM83.4613 9.75693C84.1793 9.75693 84.7613 10.339 84.7613 11.0569H86.1613C86.1613 9.56576 84.9525 8.35693 83.4613 8.35693V9.75693ZM84.7613 11.0569V42.6102H86.1613V11.0569H84.7613ZM90.4043 41.9102H85.4613V43.3102H90.4043V41.9102ZM91.7043 40.6102C91.7043 41.3281 91.1223 41.9102 90.4043 41.9102V43.3102C91.8955 43.3102 93.1043 42.1013 93.1043 40.6102H91.7043ZM91.7043 2.95953V40.6102H93.1043V2.95953H91.7043ZM90.4043 1.65953C91.1223 1.65953 91.7043 2.24156 91.7043 2.95953H93.1043C93.1043 1.46836 91.8955 0.259534 90.4043 0.259534V1.65953ZM8.78931 1.65953H90.4043V0.259534H8.78931V1.65953Z" fill="black"/>
</svg>
